<svg width="117" height="42" viewBox="0 0 117 42" fill="none" xmlns="http://www.w3.org/2000/svg">
<path fill-rule="evenodd" clip-rule="evenodd" d="M64.9002 0.280432C60.5773 1.59558 59.2921 6.13399 62.4314 8.99936C63.2901 9.78341 64.3793 10.3384 65.9798 10.808C69.8847 11.9528 70.3317 12.1196 70.8179 12.6108C72.0475 13.8532 70.899 15.6204 68.8432 15.6491C66.9389 15.6756 66.1247 15.037 65.518 13.0408C65.3999 12.6526 64.8544 12.5818 62.6281 12.666L59.8837 12.77L60.1 13.7824C60.4283 15.3202 61.388 17.0507 62.326 17.7961C65.1862 20.0692 72.1631 19.9087 74.8702 17.5071L75.9177 16.5779L76.4414 18.2574C76.7297 19.1811 77.4668 20.5285 78.0793 21.2516C79.3177 22.7135 82.5754 24.524 83.967 24.524C85.0565 24.524 85.059 24.5575 84.0867 26.0458C82.9659 27.761 82.2222 30.989 82.4536 33.1316C83.0272 38.4397 85.3757 41.0531 90.1919 41.7433C94.7317 42.3937 98.2511 41.1245 100.254 38.115L101.28 36.573V39.1609V41.7488H108.699H116.118V39.3564V36.9641H111.54H106.962V29.7871V22.6101H104.121H101.28V25.2245V27.8388L100.35 26.3565C99.2285 24.5706 97.5931 23.421 95.3508 22.8433L93.6836 22.4136L95.0619 21.4133C96.7487 20.1894 98.7881 17.5709 99.72 15.4331C100.679 13.2331 100.899 9.50175 100.196 7.36396C98.247 1.43385 90.8694 -0.762624 84.1631 2.59015C81.8073 3.76749 78.3568 7.14419 77.4756 9.13333C77.1454 9.8791 76.771 10.489 76.6438 10.489C76.5166 10.489 76.1803 10.1311 75.8968 9.69409C75.2231 8.65486 72.9391 7.51516 70.1837 6.84244C68.9682 6.54579 67.726 6.23064 67.4232 6.14228C66.7905 5.95759 65.9217 5.15026 65.9217 4.74739C65.9217 4.1206 66.9879 3.47148 68.017 3.47148C69.4443 3.47148 70.2964 3.94835 70.6771 4.95983C70.9742 5.74962 71.0499 5.76844 73.4783 5.6568C74.8509 5.59396 76.0525 5.46318 76.1481 5.36621C76.2441 5.26924 76.1769 4.65712 75.9991 4.00577C75.5489 2.35825 73.883 0.774209 72.1318 0.328598C70.5009 -0.0860729 66.1996 -0.1151 64.9002 0.280432ZM1.20378 9.66921V19.1014H4.2029H7.20203V15.2736C7.20203 11.7333 7.24686 11.4459 7.79838 11.4459C8.82219 11.4459 9.66573 12.4536 11.4021 15.7521L13.0816 18.9419L16.2979 19.0328C18.0668 19.0829 19.5142 19.0436 19.5142 18.946C19.5142 18.533 16.8415 13.4414 16.13 12.4985C15.7031 11.9333 15.0825 11.3837 14.7507 11.2775C13.8598 10.9917 14.0205 10.7202 15.5004 10.0105C18.032 8.79649 19.0543 4.81852 17.4079 2.59015C15.8547 0.488405 15.6993 0.450766 8.12671 0.339124L1.20378 0.237051V9.66921ZM95.1913 2.40418C97.2437 3.38121 99.1862 5.57099 99.8839 7.69315C101.633 13.0134 98.0294 19.9119 91.987 22.8111C82.7371 27.2493 74.1583 20.9795 76.8433 11.7432C77.7273 8.70271 78.9907 6.97034 82.099 4.5375C86.3123 1.24023 91.1059 0.45906 95.1913 2.40418ZM11.7588 4.53304C12.4559 5.04819 12.5086 6.53973 11.8532 7.20224C11.5669 7.49155 10.5352 7.75407 9.28816 7.85519L7.20203 8.02457V6.067V4.10944H9.19376C10.3511 4.10944 11.4254 4.28679 11.7588 4.53304ZM89.0974 6.62649C86.9185 7.96906 86.1826 9.90781 87.3892 11.1269C88.1532 11.8989 89.4646 11.9416 91.1747 11.2504C92.1669 10.8491 92.547 10.8191 92.8987 11.1142C93.8635 11.9234 92.3349 13.3477 91.1747 12.7202C90.6803 12.4529 90.3694 12.5033 89.7642 12.9483C88.7359 13.7043 88.771 14.1569 89.8939 14.6271C91.2186 15.1815 92.5919 14.7677 94.0359 13.3802C95.4975 11.9751 95.7214 10.4482 94.6379 9.27336C93.8689 8.43924 92.7788 8.38852 90.7353 9.09218C89.749 9.43157 89.1268 9.50143 88.9225 9.29505C88.4291 8.79649 89.558 7.85774 90.3956 8.06986C90.8505 8.18533 91.4096 8.00415 91.9684 7.55981C92.7873 6.9091 92.8034 6.84722 92.262 6.44722C91.4576 5.85265 90.2415 5.92155 89.0974 6.62649ZM83.364 10.704C82.9732 10.9796 82.6537 11.3193 82.6537 11.4593C82.6537 11.5993 83.364 12.7556 84.2322 14.029C85.1004 15.3024 85.8107 16.5218 85.8107 16.7393C85.8107 17.2909 85.1319 17.4778 84.4393 17.117C83.9973 16.887 83.6741 16.9875 83.0976 17.5349C82.1063 18.4755 82.1331 18.6114 83.431 19.2337C84.3967 19.6969 84.6492 19.7052 85.5963 19.3052C88.5522 18.0574 88.7647 16.2172 86.3641 12.6481C85.4521 11.2919 84.5637 10.1869 84.3901 10.193C84.2164 10.1987 83.7549 10.4287 83.364 10.704ZM6.21042 22.613C3.16457 23.1393 1.50495 24.4417 0.877029 26.7986C0.251949 29.1434 1.39761 31.3208 3.93677 32.6142C4.48482 32.8936 6.04752 33.426 7.40944 33.7973C10.5942 34.6659 11.3061 35.1262 11.3061 36.3153C11.3061 38.3408 8.20784 38.9864 6.54632 37.3076C6.03868 36.7947 5.62354 36.0573 5.62354 35.6684C5.62354 35.0027 5.52694 34.9731 3.96613 35.1625C3.05439 35.2732 1.76477 35.3651 1.09991 35.3663C-0.0972128 35.3692 -0.106999 35.3794 0.104834 36.4059C0.434737 38.0062 1.72089 40.0304 2.85835 40.7408C4.22279 41.5928 7.79964 42.1969 9.96028 41.9405C12.2829 41.6646 14.6329 40.602 15.5563 39.4097L16.3115 38.4349L17.7264 39.7529C19.7185 41.6081 22.8953 42.3596 26.3519 41.7931C28.9384 41.3695 30.6362 40.2406 31.817 38.1603C33.1972 35.729 33.1293 35.5405 30.5936 34.7622C29.3946 34.3944 28.2865 34.0933 28.1315 34.0933C27.9762 34.0933 27.6709 34.5912 27.4531 35.2002C26.8956 36.758 25.7145 37.6021 24.0918 37.6021C21.6815 37.6021 20.4585 35.7539 20.4632 32.1179C20.4673 28.8398 21.6496 27.1138 24.0811 26.8369C25.4579 26.68 25.593 26.7387 26.7907 28.0104L28.051 29.3492L30.4121 28.8184C31.7109 28.5265 32.7735 28.2232 32.7735 28.1444C32.7735 27.6835 31.613 25.806 30.7651 24.8956C29.4255 23.457 28.3168 22.9208 25.9942 22.5884C22.3991 22.0742 19.1433 23.0031 17.0657 25.1361C16.3367 25.8844 15.9036 26.1367 15.8092 25.8678C15.4638 24.8816 14.0255 23.5754 12.7968 23.132C11.1063 22.5224 8.10398 22.2857 6.21042 22.613ZM64.4945 22.6063C61.8606 22.9974 59.2659 24.7409 58.0805 26.9163C57.8026 27.4264 57.731 27.0589 57.7231 25.0822L57.7136 22.6101H54.8723H52.0311V25.9594V29.3087H48.7162H45.4014V25.9594V22.6101H42.5601H39.7189V32.1794V41.7488H42.5601H45.4014V37.921V34.0933H48.7162H52.0311V37.921V41.7488H54.8723H57.7136L57.7149 39.2767L57.7158 36.8046L58.3062 37.7616C59.9667 40.4537 62.5589 41.7743 66.3397 41.854C69.9781 41.9306 71.6867 41.3548 73.6955 39.3753C75.6171 37.4818 76.3398 35.515 76.3398 32.1794C76.3398 28.1249 74.742 25.0219 71.9007 23.5572C70.8779 23.0299 67.2755 22.2293 66.3953 22.3333C66.2217 22.354 65.3664 22.4768 64.4945 22.6063ZM9.96722 26.5064C10.2188 26.7173 10.5563 27.2394 10.7167 27.6662C10.9961 28.4082 11.0984 28.4337 13.0516 28.2496C15.2747 28.0398 15.2245 27.9929 14.899 29.9807L14.7109 31.1313L13.5261 30.553C12.8745 30.235 11.104 29.6611 9.59217 29.278C8.0803 28.8949 6.63251 28.3686 6.37553 28.109C4.86492 26.583 8.25488 25.0704 9.96722 26.5064ZM68.7952 27.4857C70.0403 28.3313 70.6146 29.745 70.6376 32.02C70.6736 35.5912 69.2656 37.6021 66.7293 37.6021C64.1813 37.6021 62.7648 35.6643 62.7648 32.1794C62.7648 29.7396 63.3845 28.2251 64.7189 27.4031C66.0897 26.5584 67.4721 26.5865 68.7952 27.4857ZM93.8679 27.2599C95.2712 27.9329 95.9575 29.4812 95.972 32.0059C95.9932 35.6936 95.0628 37.2426 92.6632 37.5159C90.9291 37.7134 89.4854 37.0084 88.7732 35.6164C88.0234 34.1514 88.0342 30.0834 88.7912 28.7887C89.9151 26.8662 91.8386 26.287 93.8679 27.2599Z" fill="black"/>
</svg>
